<svg width="111" height="89" viewBox="0 0 111 89" fill="none" xmlns="http://www.w3.org/2000/svg">
<path d="M108.225 61.1875H105.45V42.3967C105.45 40.1891 104.565 38.0684 103.005 36.5039L85.6781 19.1385C84.1172 17.574 82.0013 16.6875 79.7986 16.6875H72.15V8.34375C72.15 3.7373 68.4211 0 63.825 0H8.325C3.72891 0 0 3.7373 0 8.34375V63.9688C0 68.5752 3.72891 72.3125 8.325 72.3125H11.1C11.1 81.5254 18.5578 89 27.75 89C36.9422 89 44.4 81.5254 44.4 72.3125H66.6C66.6 81.5254 74.0578 89 83.25 89C92.4422 89 99.9 81.5254 99.9 72.3125H108.225C109.751 72.3125 111 71.0609 111 69.5312V63.9688C111 62.4391 109.751 61.1875 108.225 61.1875ZM27.75 80.6562C23.1539 80.6562 19.425 76.9189 19.425 72.3125C19.425 67.7061 23.1539 63.9688 27.75 63.9688C32.3461 63.9688 36.075 67.7061 36.075 72.3125C36.075 76.9189 32.3461 80.6562 27.75 80.6562ZM83.25 80.6562C78.6539 80.6562 74.925 76.9189 74.925 72.3125C74.925 67.7061 78.6539 63.9688 83.25 63.9688C87.8461 63.9688 91.575 67.7061 91.575 72.3125C91.575 76.9189 87.8461 80.6562 83.25 80.6562ZM97.125 44.5H72.15V25.0312H79.7986L97.125 42.3967V44.5Z" fill="#1C1F30"/>
</svg>
